<svg xmlns="http://www.w3.org/2000/svg" aria-hidden="true" style="position:absolute;width:0;height:0;overflow:hidden">
  <defs>
    <symbol id="icon-add" viewBox="0 0 32 32">
      <path d="M15.666 4a1 1 0 0 1 .991.864l.009.136.002 9.667h9.671a1 1 0 0 1 .136 1.991l-.136.009h-9.671l.003 9.665a1 1 0 0 1-1.991.136l-.009-.136-.003-9.666H5.003a1 1 0 0 1-.136-1.991l.136-.009h9.665L14.666 5a1 1 0 0 1 1-1z"/>
    </symbol>
    <symbol id="icon-arrow-right" viewBox="0 0 32 32">
      <path d="M18.273 5.712a1.332 1.332 0 1 0-1.871 1.9l7.161 7.055H5.335a1.333 1.333 0 0 0 0 2.666h18.219l-7.152 7.047a1.333 1.333 0 0 0 1.871 1.9l9.232-9.097a1.665 1.665 0 0 0 0-2.374l-9.232-9.096z"/>
    </symbol>
    <symbol id="icon-bookmark" viewBox="0 0 32 32">
      <path d="M8.254 29.139a1 1 0 0 1-1.584-.812V8.332a4.333 4.333 0 0 1 4.333-4.333h9.998a4.333 4.333 0 0 1 4.333 4.333v19.995a1 1 0 0 1-1.584.812l-7.748-5.575-7.748 5.575zm15.08-20.807a2.333 2.333 0 0 0-2.333-2.333h-9.998A2.333 2.333 0 0 0 8.67 8.332v18.043l6.748-4.855a1 1 0 0 1 1.168 0l6.748 4.855V8.332z"/>
    </symbol>
    <symbol id="icon-burger" viewBox="0 0 32 32">
      <path d="M27.667 9.333a.997.997 0 0 1-1 1H5.334a.997.997 0 0 1-1-1 .997.997 0 0 1 1-1h21.333a.997.997 0 0 1 1 1zm0 6.667a.997.997 0 0 1-1 1H5.334a.997.997 0 0 1-1-1 .997.997 0 0 1 1-1h21.333a.997.997 0 0 1 1 1zm0 6.667a.997.997 0 0 1-1 1H5.334a.997.997 0 0 1-1-1 .997.997 0 0 1 1-1h21.333a.997.997 0 0 1 1 1z"/>
    </symbol>
    <symbol id="icon-calendar" viewBox="0 0 32 32">
      <path d="M23.667 4A4.333 4.333 0 0 1 28 8.333v15.333a4.333 4.333 0 0 1-4.333 4.333H8.334a4.333 4.333 0 0 1-4.333-4.333V8.333A4.333 4.333 0 0 1 8.334 4h15.333zM26 11.333H6v12.333a2.333 2.333 0 0 0 2.333 2.333h15.333a2.333 2.333 0 0 0 2.333-2.333V11.333zm-15.667 8a1.667 1.667 0 1 1 0 3.334 1.667 1.667 0 0 1 0-3.334zm5.667 0a1.667 1.667 0 1 1 0 3.333 1.667 1.667 0 0 1 0-3.333zM10.333 14a1.667 1.667 0 1 1 0 3.334 1.667 1.667 0 0 1 0-3.334zM16 14a1.667 1.667 0 1 1 0 3.333A1.667 1.667 0 0 1 16 14zm5.667 0a1.667 1.667 0 1 1 0 3.333 1.667 1.667 0 0 1 0-3.333zm2-8H8.334a2.333 2.333 0 0 0-2.333 2.333v1h20v-1A2.333 2.333 0 0 0 23.668 6z"/>
    </symbol>
    <symbol id="icon-checkmark" viewBox="0 0 32 32">
      <path d="M6.04 17.293a.999.999 0 1 0-1.414 1.414l6 6a.999.999 0 0 0 1.414 0L26.707 10.04a.999.999 0 1 0-1.414-1.414l-13.96 13.959-5.293-5.293z"/>
    </symbol>
    <symbol id="icon-cursor" viewBox="0 0 32 32">
      <path d="M12.333 2.667a1 1 0 0 1 1 1V7a1 1 0 0 1-2 0V3.667a1 1 0 0 1 1-1zM5.96 5.293a.999.999 0 0 1 1.414 0l2.333 2.333A.999.999 0 1 1 8.293 9.04L5.96 6.707a.999.999 0 0 1 0-1.414zm12.747 0a.999.999 0 0 1 0 1.414L16.374 9.04a.999.999 0 1 1-1.414-1.414l2.333-2.333a.999.999 0 0 1 1.414 0zM3.333 11.667a1 1 0 0 1 1-1h3.333a1 1 0 0 1 0 2H4.333a1 1 0 0 1-1-1zm10.903-.353c-1.141-.978-2.903-.167-2.903 1.335v15.032c0 1.614 1.993 2.376 3.069 1.173l3.486-3.896c.367-.41.885-.654 1.435-.676l5.12-.205c1.597-.064 2.288-2.052 1.074-3.093l-11.281-9.67zm-.903 15.735V13.174l10.416 8.928-4.506.18a4.033 4.033 0 0 0-2.845 1.341l-3.065 3.425z"/>
    </symbol>
    <symbol id="icon-deadphones" viewBox="0 0 32 32">
      <path d="M29.333 16v9.333a4 4 0 0 1-3.765 3.993l-.235.007h-4a1.333 1.333 0 0 1-1.324-1.178L20 28v-8c0-.684.515-1.247 1.178-1.324l.155-.009h6V16c0-6.259-5.074-11.333-11.333-11.333S4.667 9.741 4.667 16v2.667h6c.736 0 1.333.597 1.333 1.333v8c0 .736-.597 1.333-1.333 1.333h-4a4 4 0 0 1-4-4V16C2.667 8.636 8.637 2.667 16 2.667S29.333 8.637 29.333 16zM10 20.667H4.667v4.667a2 2 0 0 0 2 2H10v-6.667zm17.333 0H22v6.667h3.333a2 2 0 0 0 1.991-1.807l.009-.193v-4.667z"/>
    </symbol>
    <symbol id="icon-dismiss" viewBox="0 0 32 32">
      <path d="m5.863 6.072.097-.112a1 1 0 0 1 1.302-.097l.112.097L16 14.586l8.626-8.626a.999.999 0 1 1 1.414 1.414L17.414 16l8.626 8.626a1 1 0 0 1 .097 1.302l-.097.112a1 1 0 0 1-1.302.097l-.112-.097L16 17.414 7.374 26.04a.999.999 0 1 1-1.414-1.414L14.586 16 5.96 7.374a1 1 0 0 1-.097-1.302z"/>
    </symbol>
    <symbol id="icon-facebook" viewBox="0 0 32 32">
      <path d="M29.333 16c0-7.364-5.97-13.333-13.333-13.333S2.667 8.637 2.667 16c0 6.253 4.305 11.5 10.112 12.941v-8.866H10.03v-4.074h2.749v-1.756c0-4.538 2.054-6.642 6.509-6.642.845 0 2.302.166 2.898.331v3.694c-.315-.033-.861-.05-1.54-.05-2.186 0-3.031.828-3.031 2.981V16h4.355l-.748 4.074h-3.607v9.161c6.602-.797 11.718-6.419 11.718-13.236z"/>
    </symbol>
    <symbol id="icon-flash" viewBox="0 0 32 32">
      <path d="M9.9 3.774a1.667 1.667 0 0 1 1.57-1.107h8.605a1.667 1.667 0 0 1 1.581 2.194l-1.935 5.806h5.278c1.472 0 2.221 1.769 1.197 2.826L11.448 28.715c-1.405 1.45-3.829.142-3.388-1.829l1.692-7.557-2.091-.008a2.333 2.333 0 0 1-2.189-3.116L9.9 3.775zm1.805.893L7.356 16.876a.333.333 0 0 0 .313.445l3.335.013a1.002 1.002 0 0 1 .972 1.218l-1.964 8.771 14.2-14.656h-5.879a1.002 1.002 0 0 1-.948-1.316l2.228-6.684h-7.907z"/>
    </symbol>
    <symbol id="icon-image" viewBox="0 0 32 32">
      <path d="M23.667 4A4.333 4.333 0 0 1 28 8.333v15.333a4.333 4.333 0 0 1-4.333 4.333H8.334a4.333 4.333 0 0 1-4.333-4.333V8.333A4.333 4.333 0 0 1 8.334 4h15.333zm.774 21.869L16.7 18.287a1 1 0 0 0-1.288-.094l-.111.094-7.742 7.582c.243.085.504.132.775.132h15.333c.271 0 .532-.046.774-.131zM23.667 6H8.334a2.333 2.333 0 0 0-2.333 2.333v15.333c0 .278.049.544.138.792l7.763-7.601a3 3 0 0 1 4.027-.155l.171.155 7.763 7.602c.089-.248.138-.515.138-.793V8.333A2.333 2.333 0 0 0 23.668 6zm-3.331 2.667a3.003 3.003 0 1 1 0 6.006 3.003 3.003 0 0 1 0-6.006zm0 2a1.003 1.003 0 1 0 0 2.006 1.003 1.003 0 0 0 0-2.006z"/>
    </symbol>
    <symbol id="icon-layer" viewBox="0 0 32 32">
      <path d="M26.701 16.256c-.198.317-.46.588-.769.797l-8.067 5.445a3.332 3.332 0 0 1-3.73 0l-8.066-5.445A2.668 2.668 0 0 1 5.03 14l9.121 6.079c1.05.7 2.397.743 3.484.131l.214-.131 9.121-6.08c.242.728.17 1.555-.269 2.257zm.268 2.077a2.662 2.662 0 0 1-1.038 3.054l-8.067 5.445a3.332 3.332 0 0 1-3.73 0l-8.066-5.445a2.668 2.668 0 0 1-1.039-3.053l9.121 6.079c1.05.7 2.397.743 3.484.131l.214-.131 9.121-6.08zm-9.12-13.767 8.487 5.658a1.333 1.333 0 0 1 0 2.219l-8.487 5.658a3.335 3.335 0 0 1-3.698 0l-8.487-5.658a1.333 1.333 0 0 1 0-2.219l8.487-5.658a3.335 3.335 0 0 1 3.698 0zm-2.435 1.576-.154.088-7.654 5.103 7.654 5.103c.398.265.903.295 1.325.089l.154-.089 7.652-5.103-7.652-5.103a1.332 1.332 0 0 0-1.325-.088z"/>
    </symbol>
    <symbol id="icon-lightbulb" viewBox="0 0 32 32">
      <path d="M16 2.669a9.667 9.667 0 0 1 9.667 9.667c0 2.795-1.201 5.36-3.551 7.656a.984.984 0 0 0-.233.354l-.042.136-1.508 6.527a3 3 0 0 1-2.692 2.316l-.231.009h-2.818a3.001 3.001 0 0 1-2.863-2.102l-.061-.223-1.506-6.526a1 1 0 0 0-.276-.491c-2.239-2.187-3.436-4.617-3.545-7.258l-.008-.398.005-.319A9.667 9.667 0 0 1 16 2.669zm2.82 21.997h-5.641l.438 1.892a1 1 0 0 0 .837.766l.138.009h2.818a1 1 0 0 0 .934-.643l.04-.132.436-1.893zM16 4.669a7.666 7.666 0 0 0-7.661 7.373l-.006.294.009.369c.102 2.085 1.067 4.025 2.941 5.856.352.344.613.768.762 1.235l.065.237.607 2.634h6.564l.611-2.635c.111-.479.337-.922.658-1.292l.168-.178c1.873-1.83 2.838-3.771 2.94-5.856l.009-.369-.006-.294A7.667 7.667 0 0 0 16 4.67z"/>
    </symbol>
    <symbol id="icon-linkedIn" viewBox="0 0 32 32">
      <path d="M26.37 29.333H5.629a2.964 2.964 0 0 1-2.963-2.963V5.629a2.964 2.964 0 0 1 2.963-2.963H26.37a2.964 2.964 0 0 1 2.963 2.963V26.37a2.964 2.964 0 0 1-2.963 2.963zm-4.872-4h3.835v-7.879c0-3.334-1.89-4.946-4.529-4.946-2.641 0-3.752 2.056-3.752 2.056v-1.676h-3.696v12.444h3.696v-6.533c0-1.75.806-2.792 2.348-2.792 1.418 0 2.098 1.001 2.098 2.792v6.533zM6.667 8.963c0 1.268 1.02 2.296 2.279 2.296s2.279-1.028 2.279-2.296c0-1.268-1.02-2.296-2.279-2.296S6.667 7.695 6.667 8.963zm4.225 16.37H7.038V12.889h3.854v12.444z"/>
    </symbol>
    <symbol id="icon-mail" viewBox="0 0 32 32">
      <path d="M7 5.333h18a4.334 4.334 0 0 1 4.327 4.087l.007.246v12.667a4.334 4.334 0 0 1-4.087 4.327l-.246.007h-18a4.333 4.333 0 0 1-4.326-4.087l-.007-.246V9.667a4.333 4.333 0 0 1 4.087-4.326l.246-.007zm20.333 7.164-10.868 5.721c-.25.131-.542.15-.803.056l-.128-.056-10.868-5.72v9.835c0 1.224.943 2.228 2.142 2.326l.191.008h18a2.335 2.335 0 0 0 2.326-2.142l.008-.191v-9.836zM25 7.333H7a2.335 2.335 0 0 0-2.326 2.142l-.008.191v.572l11.333 5.965 11.333-5.966v-.571A2.335 2.335 0 0 0 25.19 7.34l-.191-.008z"/>
    </symbol>
    <symbol id="icon-molecule" viewBox="0 0 32 32">
      <path d="M21.333 16a6.667 6.667 0 1 0-5.783-3.348l-3.618 2.411a5.333 5.333 0 1 0 .307 6.84l5.183 2.591a4 4 0 1 0 .895-1.789l-5.182-2.591c.13-.461.199-.947.199-1.449 0-.67-.123-1.311-.349-1.901l3.817-2.543a6.642 6.642 0 0 0 4.532 1.777zm0-2a4.667 4.667 0 1 1 0-9.334 4.667 4.667 0 0 1 0 9.334zM8 22a3.333 3.333 0 1 1 0-6.665A3.333 3.333 0 0 1 8 22zm15.333 3.333a2 2 0 1 1-3.999.001 2 2 0 0 1 3.999-.001z"/>
    </symbol>
    <symbol id="icon-paint-brush" viewBox="0 0 32 32">
      <path d="M7.667 2.667a1 1 0 0 0-1 1v15.334a3 3 0 0 0 3 3h3V26a3.333 3.333 0 1 0 6.666 0v-3.999h3a3 3 0 0 0 3-3V3.667a1 1 0 0 0-1-1H7.666zm1 12v-10h8v2.335a1 1 0 0 0 2 0V4.667H20v3.668a1 1 0 0 0 2 0V4.667h1.334v10H8.667zm0 4.334v-2.334h14.667v2.334a1 1 0 0 1-1 1h-4a1 1 0 0 0-1 1V26a1.333 1.333 0 0 1-2.666 0v-4.999a1 1 0 0 0-1-1h-4a1 1 0 0 1-1-1z"/>
    </symbol>
    <symbol id="icon-person" viewBox="0 0 32 32">
      <path d="M15.085 20.666c.23-.711.549-1.382.945-2H7.004a2.999 2.999 0 0 0-2.998 2.999v.77a5 5 0 0 0 1.198 3.247c2.088 2.446 5.27 3.653 9.464 3.653.8 0 1.563-.044 2.289-.132a8.694 8.694 0 0 1-1.325-1.892c-.313.016-.634.024-.963.024-3.651 0-6.272-.994-7.943-2.951a3 3 0 0 1-.719-1.948v-.77a1 1 0 0 1 .998-.999h8.081zm-.418-17.994a6.667 6.667 0 1 1 0 13.334 6.667 6.667 0 0 1 0-13.334zm0 2a4.667 4.667 0 1 0 0 9.334 4.667 4.667 0 0 0 0-9.334zm16 18.661a7.333 7.333 0 1 1-14.666 0 7.333 7.333 0 0 1 14.666 0zm-6.593-4.106a.77.77 0 0 0-1.481 0l-.743 2.383h-2.403c-.754 0-1.068 1.006-.458 1.468l1.944 1.473-.743 2.383c-.233.748.588 1.37 1.198.907l1.944-1.473 1.944 1.473c.61.462 1.431-.16 1.198-.907l-.743-2.383 1.944-1.473c.61-.462.297-1.468-.458-1.468h-2.403l-.743-2.383z"/>
    </symbol>
    <symbol id="icon-premium" viewBox="0 0 32 32">
      <path d="M23.999 4c.321 0 .62.154.807.409l.073.115 4.351 8.038.051.124.016.053.027.136.008.125a.976.976 0 0 1-.036.266l-.063.168-.05.091a.997.997 0 0 1-.101.136l.08-.103-.033.046-12.333 14.007a.966.966 0 0 1-.396.309l-.131.044-.103.023L16 28l-.134-.009-.157-.034a.965.965 0 0 1-.231-.101l-.012-.01a.916.916 0 0 1-.175-.138L2.871 13.603l-.053-.078a.99.99 0 0 1-.141-.402l-.008-.124.004-.088.018-.118c.008-.04.019-.078.031-.116l.03-.078.037-.076 4.332-8c.153-.282.43-.472.743-.515L8 3.999h16zm-4.003 10h-7.999l4.001 10.249L19.995 14zM9.852 14H5.879l7.135 8.099L9.853 14zm16.264 0h-3.972l-3.157 8.093L26.116 14zM11.961 6H8.593l-3.251 6h4.699l1.92-6zm5.974 0h-3.873l-1.921 6h7.713l-1.919-6zm5.468 0h-3.368l1.92 6h4.696l-3.248-6z"/>
    </symbol>
    <symbol id="icon-rocket" viewBox="0 0 32 32">
      <path d="M17.41 9.908a3.333 3.333 0 1 1 4.714 4.713 3.333 3.333 0 0 1-4.714-4.713zm3.299 1.414a1.333 1.333 0 1 0-1.886 1.885 1.333 1.333 0 0 0 1.886-1.885zm7.969-5.559a3.666 3.666 0 0 0-2.415-2.414l-.883-.274a9.002 9.002 0 0 0-9.032 2.232L15.02 6.635a4.663 4.663 0 0 0-6.092.435L7.271 8.727a.999.999 0 0 0 0 1.414l2.121 2.121-.24.24a2.334 2.334 0 0 0 0 3.3l.66.66-1.861 1.061a1 1 0 0 0-.212 1.575l5.185 5.185a1.002 1.002 0 0 0 1.576-.211l1.064-1.86.663.663a2.334 2.334 0 0 0 3.3 0l.236-.236 2.119 2.119a.999.999 0 0 0 1.414 0l1.657-1.657a4.663 4.663 0 0 0 .437-6.09l1.331-1.331a9 9 0 0 0 2.231-9.035l-.275-.886zm-3.007-.503c.524.163.935.573 1.098 1.097l.275.886a6.997 6.997 0 0 1-1.735 7.027l-7.194 7.194a.333.333 0 0 1-.471 0l-7.075-7.075a.333.333 0 0 1 0-.471l7.195-7.195a7 7 0 0 1 7.025-1.736l.883.274zm-1.719 13.195a2.665 2.665 0 0 1-.411 3.236l-.95.95-1.412-1.412 2.773-2.773zm-13.609-9.97a2.663 2.663 0 0 1 3.238-.41l-2.773 2.773-1.414-1.414.95-.95zm3.758 12.264-.684 1.197-3.334-3.333 1.198-.683 2.82 2.82zM8.92 24.526a.999.999 0 1 0-1.414-1.414l-3.3 3.3a.999.999 0 1 0 1.414 1.414l3.3-3.3zm-2.593-4.007a.999.999 0 0 1 0 1.414l-1.414 1.414a.999.999 0 1 1-1.414-1.414l1.414-1.414a.999.999 0 0 1 1.414 0zm5.183 6.602a.999.999 0 1 0-1.414-1.414l-1.411 1.411a.999.999 0 1 0 1.414 1.414l1.411-1.411z"/>
    </symbol>
    <symbol id="icon-text" viewBox="0 0 32 32">
      <path d="M6.667 6.333a1 1 0 0 1 1-1h16.667a1 1 0 0 1 1 1V9a1 1 0 0 1-2 0V7.333h-6.333v17.333h2a1 1 0 0 1 0 2h-6a1 1 0 0 1 0-2h2V7.333H8.668V9a1 1 0 0 1-2 0V6.333z"/>
    </symbol>
    <symbol id="icon-twitter" viewBox="0 0 32 32">
      <path d="M23.735 4h4.087l-8.975 10.185L29.332 28h-8.228l-6.442-8.396L7.287 28H3.199l9.508-10.893L2.666 4h8.433l5.82 7.669L23.734 4zm-1.43 21.609h2.266L9.909 6.303H7.474l14.831 19.306z"/>
    </symbol>
  </defs>
</svg>
